<?xml version="1.0" encoding="utf-8"?>
<!-- Generator: Adobe Illustrator 16.0.0, SVG Export Plug-In . SVG Version: 6.00 Build 0)  -->
<!DOCTYPE svg PUBLIC "-//W3C//DTD SVG 1.1//EN" "http://www.w3.org/Graphics/SVG/1.1/DTD/svg11.dtd">
<svg version="1.1" id="Layer_1" xmlns="http://www.w3.org/2000/svg" xmlns:xlink="http://www.w3.org/1999/xlink" x="0px" y="0px"
	 width="64px" height="64px" viewBox="0 0 64 64" enable-background="new 0 0 64 64" xml:space="preserve">
<g>
	<path fill="#ED195B" d="M4.228,20.055c0,0,0-4.46,3.873-6.671L28.097,1.967c0,0,3.871-2.211,7.711,0.055l20.098,11.862
		c0,0,3.84,2.267,3.84,6.728v23.333c0,0,0,4.463-3.871,6.673L35.879,62.033c0,0-3.873,2.212-7.714-0.057L8.068,50.115
		c0,0-3.841-2.266-3.841-6.727L4.228,20.055L4.228,20.055z"/>
	<line fill="none" x1="36.82" y1="32.727" x2="59.438" y2="45.84"/>
	<line fill="none" x1="55.874" y1="50.617" x2="39.159" y2="60.198"/>
	<path opacity="0.1" fill="#010101" enable-background="new    " d="M36.848,32.777L26.99,47.311l17.059,10.071l11.826-6.817
		c2.205-1.26,3.152-3.246,3.563-4.726L36.848,32.777z"/>
	<polygon opacity="0.1" fill="#010101" enable-background="new    " points="27.034,35.436 31.724,38.115 33.65,35.383 	"/>
	<path opacity="0.1" fill="#010101" enable-background="new    " d="M35.15,17.43l-6.026,9.659l30.565,17.737
		c0.082-0.534,0.082-0.873,0.082-0.873V31.876L35.15,17.43z"/>
	<g>
		<path fill="#FFFFFF" d="M31.083,44.402l0.052-0.079l6.166-8.44c0.079-0.105,0.133-0.477,0.133-0.607v-1.51
			c0-0.58-0.478-1.082-1.06-1.082h-8.996c-0.292,0-0.529,0.236-0.529,0.527v1.878c0,0.265,0.212,0.423,0.478,0.423h5.979
			c0.078,0,0.156,0.027,0.156,0.079c0,0.056-0.023,0.081-0.078,0.161l-6.404,8.811c-0.238,0.317-0.344,0.555-0.344,0.848v1.138
			c0,0.581,0.477,1.058,1.059,1.058l10.211-0.002c0.372,0,0.647-0.308,0.335-0.844c-0.045-0.08-0.984-1.734-1.055-1.861
			c-0.111-0.193-0.349-0.391-0.746-0.391h-5.194c0,0-0.004,0.001-0.005,0.001C31.135,44.508,31.083,44.482,31.083,44.402"/>
		<path fill="#FFFFFF" d="M26.667,19.905c0,0,0-0.912,0.793-1.364l4.088-2.336c0,0,0.794-0.451,1.579,0.012l4.109,2.426
			c0,0,0.785,0.464,0.785,1.377v4.771c0,0,0,0.913-0.789,1.366l-4.092,2.334c0,0-0.793,0.452-1.577-0.012l-4.111-2.426
			c0,0-0.786-0.463-0.786-1.376V19.905z"/>
	</g>
</g>
</svg>
