<?xml version="1.0" standalone="no"?>
<!DOCTYPE svg PUBLIC "-//W3C//DTD SVG 1.1//EN" "http://www.w3.org/Graphics/SVG/1.1/DTD/svg11.dtd" >
<svg xmlns="http://www.w3.org/2000/svg">
<metadata>Generated by IcoMoon</metadata>
<defs>
<font id="icomoon" horiz-adv-x="1024">
<font-face units-per-em="1024" ascent="877.8572825024438" descent="-146.14271749755622" />
<missing-glyph horiz-adv-x="1024" />
<glyph unicode="&#x20;" horiz-adv-x="256.25024437927664" d="" />
<glyph unicode="&#x65;" glyph-name="hold" horiz-adv-x="615" d="M0 850.987h205v-820.001h-205v820.001zM410 850.987h205v-820.001h-205v820.001z" />
<glyph unicode="&#x68;" glyph-name="hexagon" horiz-adv-x="725" d="M654.506 564.428l-244.414 144.272c-46.721 27.572-93.796 0.672-93.796 0.672l-243.212-138.871c-47.106-26.893-47.106-81.13-47.106-81.13v-283.802c0-54.244 46.721-81.806 46.721-81.806l244.427-144.28c46.707-27.575 93.795-0.68 93.795-0.68l243.212 138.848c47.079 26.895 47.079 81.151 47.079 81.151v283.811c0 54.243-46.705 81.815-46.705 81.815z" />
<glyph unicode="&#xe900;" glyph-name="accept" d="M988.816 732.704c-25.664 25.68-67.312 25.712-93.008 0.048 0-0.032 0-0.032-0.032-0.048l-558.192-557.968-209.136 209.264c-25.696 25.712-67.392 25.776-93.12 0.064-25.744-25.664-25.792-67.36-0.096-93.12l255.824-255.664c25.664-25.68 67.312-25.68 93.008-0.064 0.016 0.032 0.032 0.064 0.048 0.064l604.704 604.528c25.584 25.68 25.584 67.232 0 92.896z" />
<glyph unicode="&#xe901;" glyph-name="call" d="M339.776 744.976l-174.88-10.896c-9.008-0.656-16.768-8.656-17.072-17.648-1.968-183.952 25.808-346.16 192.288-510.944 167.072-165.712 321.952-184.288 506.752-182.352 9.056 0 17.424 8.016 18.128 16.992l11.248 173.088c0.688 8.992-6.784 17.952-15.792 19.248l-173.84 25.008c-5.792 0.576-11.648-1.28-15.472-5.136-41.648-41.392-75.84-74.688-83.6-82.736-14.16 6.112-85.792 36.88-165.792 116.064-80.336 79.472-118.704 159.008-125.808 173.712 9.664 9.616 50 49.344 83.2 82.352 4.224 3.888 6.144 9.984 5.184 15.44l-25.472 172.752c-1.648 8.656-10.368 15.664-19.072 15.056z" />
<glyph unicode="&#xe902;" glyph-name="chevron-down" d="M512 280.336l-496 417.84v-210.512l496-417.84 496 417.84v210.512z" />
<glyph unicode="&#xe903;" glyph-name="chevron-double-left" d="M423.12 867.248l-407.12-483.232 407.12-483.264h205.104l-407.136 483.264 407.136 483.232zM802.912 867.248l-407.136-483.232 407.136-483.264h205.088l-407.12 483.264 407.12 483.232z" />
<glyph unicode="&#xe904;" glyph-name="chevron-double-right" d="M600.88 867.248l407.12-483.232-407.12-483.264h-205.104l407.136 483.264-407.136 483.232zM221.088 867.248l407.136-483.232-407.136-483.264h-205.088l407.12 483.264-407.12 483.232z" />
<glyph unicode="&#xe905;" glyph-name="chevron-up" d="M512 487.664l-496-417.84v210.512l496 417.84 496-417.84v-210.512z" />
<glyph unicode="&#xe906;" glyph-name="endcall" d="M888.72 197.44l116.112 131.248c5.888 6.8 5.712 17.968-0.352 24.544-128.592 131.584-262.832 226.8-497.088 225.808-235.312-0.72-358.048-96.96-487.52-228.864-6.4-6.384-6.656-17.984-0.768-24.832l114.256-130.464c5.856-6.864 17.52-7.904 24.768-2.48l140.8 105.104c4.432 3.696 7.296 9.12 7.296 14.56 0.24 58.72 0.928 106.448 0.704 117.632 14.336 5.68 86.8 34.464 199.328 34.944 113.024 0.496 196.352-28.688 211.776-34.096-0.048-13.632-0.528-70.24-0.704-117.040-0.256-5.728 2.672-11.408 7.232-14.576l140.032-104.272c7.264-5.008 18.4-3.808 24.128 2.784z" />
<glyph unicode="&#xe907;" glyph-name="menu" d="M622.24 384c0-60.884-49.356-110.24-110.24-110.24s-110.24 49.356-110.24 110.24c0 60.884 49.356 110.24 110.24 110.24s110.24-49.356 110.24-110.24zM622.224 769.776c0-60.875-49.349-110.224-110.224-110.224s-110.224 49.349-110.224 110.224c0 60.875 49.349 110.224 110.224 110.224s110.224-49.349 110.224-110.224zM622.208-1.792c0-60.866-49.342-110.208-110.208-110.208s-110.208 49.342-110.208 110.208c0 60.866 49.342 110.208 110.208 110.208s110.208-49.342 110.208-110.208z" />
<glyph unicode="&#xe908;" glyph-name="reject" d="M637.376 384l344.432 344.672c34.624 34.624 34.624 90.752 0 125.36-34.608 34.624-90.752 34.624-125.408 0l-344.4-344.672-344.656 344.448c-34.624 34.624-90.752 34.624-125.36 0s-34.624-90.752 0-125.36l344.672-344.448-344.448-344.64c-34.624-34.64-34.624-90.784 0-125.408 34.608-34.608 90.736-34.608 125.36 0l344.432 344.688 344.672-344.448c34.64-34.624 90.768-34.624 125.36 0 34.592 34.64 34.592 90.784 0 125.376l-344.656 344.432z" />
<glyph unicode="&#xe909;" glyph-name="envelope" d="M512 242.288l-122.704 107.44-350.912-300.784c12.768-11.84 29.984-19.216 48.976-19.216h849.264c18.896 0 36.080 7.376 48.752 19.216l-350.656 300.768-122.72-107.424zM994.128 726.416c-21.392 11.856-38.416 11.856-57.504 11.856h-849.264c-18.928 0-36.432-2.32-57.728-11.68l482.368-413.44 482.128 413.264zM16 676.064v-588.656l342.464 291.008zM665.536 378.416l342.464-291.008v588.864z" />
<glyph unicode="&#xe90a;" glyph-name="lock" d="M883.536 428.416h-568.016l0.176 143.84c0 127.44 83.216 219.952 197.872 219.952 120.192 0 197.84-86.336 197.84-219.968l0.080-4.912h104.768v7.232c-0.464 94.16-31.024 172.8-88.368 227.296-53.040 50.384-128.016 78.144-211.088 78.144-88.432 0-171.296-33.008-227.344-90.56-53.616-55.056-80.752-129.152-78.496-214.304l0.016-0.32v-0.304l-0.176-146.112h-70.336c-9.904 0-18.032-8.112-18.032-18.016v-504.368c0-9.888 8.128-18.016 18.032-18.016h743.056c9.904 0 18.032 8.128 18.032 18.032v504.368c0.016 9.92-8.112 18.016-18.016 18.016zM575.184 29.28h-126.128l26.176 128.784c-18.752 12.464-31.184 34.176-31.184 58.912 0 38.72 30.416 70.176 67.952 70.176s67.968-31.456 67.968-70.176c0-24.72-12.448-46.4-31.184-58.912l26.4-128.784z" />
<glyph unicode="&#xe90b;" glyph-name="signout" d="M181.328 714.656v-661.376h330.656v-165.28h-496v992h496v-165.344zM1008.016 384l-248.016-247.984v165.36h-413.344v165.312h413.344v165.328z" />
<glyph unicode="&#xe90c;" glyph-name="plug" d="M787.872 325.68l206.944 206.88c17.568 17.616 17.568 46.080 0 63.696-17.632 17.568-46.096 17.568-63.712 0l-206.88-206.912-206.896 206.928 206.896 206.88c17.6 17.568 17.6 46.080 0 63.664-17.568 17.584-46.096 17.584-63.664 0l-206.896-206.896-71.632 71.616-127.328-127.328c-115.472-115.504-129.776-293.856-42.944-424.928l-195.744-195.792 95.488-95.488 195.792 195.776c131.056-86.848 309.408-72.544 424.928 42.944l127.312 127.344-71.664 71.616z" />
<glyph unicode="&#xe90d;" glyph-name="hourglass" d="M521.408 384.432c69.040 54.4 117.184 105.68 150.672 151.712 5.216 7.328 0 17.792-9.424 17.792h-302.4c-9.424 0-14.656-10.464-9.424-17.792 33.488-46.032 81.632-97.312 150.688-151.712 6.272-4.176 14.656-4.176 19.888 0zM521.408 319.552c-5.232 4.208-13.616 4.208-19.888 0-161.152-128.688-211.376-238.56-222.88-311.808-1.040-7.344 4.176-13.616 11.504-13.616h441.568c7.344 0 12.576 6.272 11.552 13.616-10.48 73.248-59.648 183.104-221.856 311.808zM937.872-74.944h-54.416c5.248 34.528 5.248 79.536-6.272 131.856-23.024 101.488-83.696 199.872-181.024 295.072v0 0c97.328 95.248 158 194.64 181.024 295.104 11.52 52.32 11.52 97.296 6.272 131.84h54.416c18.832 0 34.544 15.68 34.544 34.528 0 18.832-15.712 34.544-34.544 34.544h-851.76c-18.832 0-34.528-15.712-34.528-34.528 0-18.848 15.696-34.528 34.528-34.528h54.416c-5.248-34.544-5.248-79.536 6.272-131.84 23.024-101.52 83.712-199.856 181.024-295.104v0 0c-97.312-95.2-158-194.608-181.024-295.056-11.52-52.336-11.52-97.328-6.272-131.856h-54.416c-18.832 0-34.528-15.696-34.528-34.512 0-18.88 15.696-34.576 34.528-34.576h851.76c18.832 0 34.544 15.696 34.544 34.544 0 18.816-15.712 34.512-34.544 34.512zM214.8 41.216c19.888 88.96 75.344 176.848 164.288 263.68 13.6 12.544 27.216 26.16 41.872 38.72 5.232 4.192 5.232 12.544 0 17.776-14.656 12.576-29.296 26.176-41.872 38.72-88.944 86.864-144.4 174.768-164.288 263.68-11.504 49.2-9.408 87.904-4.176 116.176h601.696c5.232-28.272 7.312-66.976-4.192-116.176-19.872-88.928-75.344-176.832-164.304-263.68-13.6-12.544-27.184-26.144-41.824-38.72-5.232-4.176-5.232-12.544 0-17.776 14.64-12.56 29.296-26.176 41.824-38.72 88.96-86.848 144.416-174.736 164.304-263.68 11.504-49.184 9.424-87.904 4.192-116.16h-601.696c-4.176 27.216-6.272 66.976 4.176 116.16z" />
<glyph unicode="&#xe90e;" glyph-name="mute" d="M182.178 722.862l714.698-714.698-54.053-54.053-178.174 178.174c-32.031-20.020-72.070-32.031-110.108-38.037v-140.137h-84.082v140.137c-140.137 20.020-256.25 140.137-256.25 286.28h72.070c0-128.125 108.106-216.211 226.221-216.211 34.033 0 68.066 8.008 98.096 22.022l-70.068 70.068c-8.008-2.002-18.018-4.004-28.027-4.004-70.068 0-128.125 58.057-128.125 128.125v32.031l-256.25 256.25zM640.626 374.522l-256.25 254.248v8.008c0 70.068 58.057 128.125 128.125 128.125s128.125-58.057 128.125-128.125v-262.256zM810.792 380.528c0-50.049-14.014-98.096-38.037-140.137l-52.051 54.053c12.012 26.025 18.018 54.053 18.018 86.084h72.070z" />
<glyph unicode="&#xe90f;" d="M67.648 543.12c0 0 0 71.36 61.968 106.736l319.936 182.672c0 0 61.936 35.376 123.376-0.88l321.568-189.792c0 0 61.44-36.272 61.44-107.648v-373.344c0 0 0-71.392-61.936-106.752l-319.936-182.64c0 0-61.968-35.392-123.424 0.896l-321.552 189.792c0 0-61.456 36.256-61.456 107.616v373.344z" />
<glyph unicode="&#xe910;" d="M589.552 339.552l-157.712-232.528 272.944-161.136 189.216 109.072c35.28 20.16 50.432 51.952 57.008 75.616l-361.456 208.976z" />
<glyph unicode="&#xe911;" d="M432.544 297.024l75.040-42.864 30.816 43.712z" />
<glyph unicode="&#xe912;" d="M562.416 585.12l-96.432-154.544 489.056-283.792c1.312 8.544 1.312 13.968 1.312 13.968v193.232l-393.936 231.136z" />
<glyph unicode="&#xe913;" d="M497.328 153.568l0.832 1.264 98.656 135.040c1.264 1.696 2.112 7.632 2.112 9.712v24.16c0 9.296-7.632 17.328-16.944 17.328h-143.936c-4.672 0-8.464-3.792-8.464-8.448v-30.048c0-4.24 3.392-6.768 7.648-6.768h95.664c1.264 0 2.512-0.432 2.512-1.264 0-0.88-0.384-1.296-1.248-2.576l-102.464-140.96c-3.808-5.088-5.504-8.88-5.504-13.568v-18.208c0-9.296 7.632-16.928 16.944-16.928l163.376 0.048c5.952 0 10.368 4.912 5.36 13.488-0.72 1.28-15.744 27.744-16.88 29.776-1.776 3.104-5.568 6.256-11.92 6.256h-83.12c0 0-0.064-0.016-0.080-0.016-1.712 0.016-2.544 0.416-2.544 1.712z" />
<glyph unicode="&#xe914;" d="M426.672 545.52c0 0 0 14.592 12.688 21.824l65.408 37.376c0 0 12.704 7.216 25.264-0.192l65.76-38.816c0 0 12.56-7.424 12.56-22.032v-76.336c0 0 0-14.608-12.64-21.856l-65.472-37.344c0 0-12.688-7.232-25.216 0.192l-65.776 38.816c0 0-12.576 7.408-12.576 22.016v76.352z" />
<glyph unicode="&#xe915;" horiz-adv-x="3498" d="M1803.366 740.052v-847.038c0-14.541 11.893-27.736 26.463-27.736h123.056c14.57 0 25.088 13.195 25.088 27.736v929.777c0 21.021-17.291 36.513-47.543 18.988-4.549-2.604-97.909-55.632-105.033-59.685-11.001-6.276-22.031-19.558-22.031-42.043z" />
<glyph unicode="&#xe916;" horiz-adv-x="3498" d="M1085.133 30.625c-38.341-21.168-87.259-37.040-134.934-37.040-66.136 0-95.261 17.159-95.261 82.022v5.193c0 74.123 26.463 112.538 146.871 112.538h83.324v-162.714zM1259.813-108.273v476.219c0 169.326-103.248 252.606-291.094 252.606-91.282 0-168.024-10.533-220.935-21.109-17.232-3.92-25.161-13.253-25.161-27.809v-84.612c0-18.505 10.562-22.484 23.859-22.484h6.612c43.652 5.208 130.955 10.591 215.625 10.591 78.058 0 116.414-21.27 116.414-107.184v-58.149h-83.324c-230.151 0-322.779-78.102-322.779-228.981v-5.193c-0.015-178.629 119.033-220.994 228.835-220.994 63.473 0 125.689 21.211 186.558 58.28v-21.182c0-14.599 11.893-26.463 26.448-26.463h112.464c14.541 0.015 26.478 11.864 26.478 26.463z" />
<glyph unicode="&#xe917;" horiz-adv-x="3498" d="M1601.931-106.986v691.917c0 14.512-11.893 26.434-26.507 26.434h-121.68c-14.555 0-26.478-11.922-26.478-26.434v-691.917c0-14.541 11.908-27.736 26.478-27.736h121.68c14.614 0 26.507 13.195 26.507 27.736z" />
<glyph unicode="&#xe918;" horiz-adv-x="3498" d="M2529.909 30.625c-38.371-21.168-87.289-37.040-134.89-37.040-66.194 0-95.291 17.159-95.291 82.022v5.193c0 74.123 26.463 112.538 146.885 112.538h83.28v-162.714zM2704.53-108.273v476.219c0 169.326-103.175 252.606-290.977 252.606-91.37 0-168.112-10.533-220.994-21.109-17.203-3.92-25.147-13.253-25.147-27.809v-84.612c0-18.505 10.606-22.484 23.83-22.484h6.597c43.681 5.208 130.97 10.591 215.713 10.591 77.97 0 116.341-21.27 116.341-107.184v-58.149h-83.28c-230.224 0-322.823-78.102-322.823-228.981v-5.193c0-178.615 119.033-220.979 228.864-220.979 63.517 0 125.718 21.211 186.514 58.28v-21.182c0-14.599 11.908-26.463 26.522-26.463h112.435c14.526 0 26.405 11.849 26.405 26.448z" />
<glyph unicode="&#xe919;" horiz-adv-x="3498" d="M3324.679 186.697c0-108.515-27.736-189.177-141.488-189.177-47.631 0-101.859 3.964-127.035 9.304v461.692c37.025 5.31 95.232 9.231 127.035 9.231 113.737 0 141.488-80.706 141.488-189.177v-101.873zM3483.019 186.697v101.873c0 206.395-103.146 332.039-316.197 332.039-31.744 0-78.058-2.604-126.976-9.231v128.673c0 22.484-11.059 35.752-22.089 42.028-7.080 4.052-100.454 57.081-105.004 59.685-30.223 17.525-47.543 2.033-47.543-18.988v-897.975c0-19.792 5.252-27.809 35.708-35.752 82.022-21.153 181.248-34.421 265.904-34.421 213.051 0 316.197 125.703 316.197 332.069z" />
<glyph unicode="&#xe91a;" horiz-adv-x="3498" d="M237.948 26.105l2.692 3.979 309.731 424.068c4.008 5.354 6.627 23.932 6.627 30.588v75.732c0 29.228-23.874 54.535-53.146 54.535h-452.008c-14.629 0-26.609-12.010-26.609-26.609v-94.384c0-13.297 10.635-21.314 23.918-21.314h300.485c3.964 0 7.929-1.302 7.929-3.95 0-2.692-1.243-3.979-3.964-7.973l-321.697-442.631c-11.952-15.974-17.276-27.897-17.276-42.569v-57.081c0-29.286 23.962-53.219 53.175-53.219l513.009 0.146c18.695 0 32.534 15.448 16.925 42.335-2.355 4.052-49.503 87.201-53.116 93.447-5.559 9.787-17.408 19.632-37.478 19.632h-260.901c-0.176 0-0.234 0-0.263 0-5.339-0.029-8.031 1.287-8.031 5.266z" />
<glyph unicode="&#xe91b;" glyph-name="disconnect" d="M512.032-143.984c-146.544 0-284.032 63.936-378.64 175.728l-103.728-103.712c-2.288-2.304-5.728-2.96-8.72-1.728s-4.944 4.144-4.944 7.376v313.728c0 4.416 3.584 8 8 8h313.696c3.232 0 6.16-1.952 7.392-4.944 1.248-2.992 0.56-6.432-1.728-8.72l-99.344-99.392c65.152-83.312 162.448-130.96 268.032-130.96 187.776 0 340.544 152.768 340.544 340.56 0 4.416 3.584 8 8 8l139.424 0.016c2.128 0 4.16-0.848 5.664-2.336s2.32-3.52 2.32-5.648c0-273.472-222.496-495.968-495.968-495.968zM163.408 343.968h-139.408c-4.416 0-8 3.584-8 8 0 273.504 222.496 496.016 495.984 496.016 146.496 0 283.952-63.984 378.576-175.84l103.776 103.696c2.304 2.288 5.744 2.992 8.72 1.728 2.992-1.232 4.944-4.144 4.944-7.376v-313.648c0-4.416-3.584-8-8-8h-313.728c-3.232 0-6.16 1.952-7.392 4.944s-0.544 6.432 1.728 8.72l99.44 99.456c-65.136 83.264-162.448 130.864-268.064 130.864-187.792 0-340.576-152.784-340.576-340.576 0-4.4-3.568-7.984-8-7.984z" />
<glyph unicode="&#xf0ec;" glyph-name="transfer" d="M1025.001 173.755v-109.821q0-7.436-5.434-12.87t-12.87-5.434h-787.055v-109.821q0-7.436-5.434-12.87t-12.87-5.434q-6.864 0-13.727 5.72l-182.464 183.036q-5.148 5.148-5.148 12.583 0 8.008 5.148 13.156l183.036 183.036q5.148 5.148 13.156 5.148 7.436 0 12.87-5.434t5.434-12.87v-109.821h787.055q7.436 0 12.87-5.434t5.434-12.87zM1025.001 484.916q0-8.008-5.148-13.156l-183.036-183.036q-5.148-5.148-13.156-5.148-7.436 0-12.87 5.434t-5.434 12.87v109.821h-787.055q-7.436 0-12.87 5.434t-5.434 12.87v109.821q0 7.436 5.434 12.87t12.87 5.434h787.055v109.821q0 8.008 5.148 13.156t13.156 5.148q6.864 0 13.727-5.72l182.464-182.464q5.148-5.148 5.148-13.156z" />
</font>
</defs>
</svg>
